<svg xmlns="http://www.w3.org/2000/svg" viewBox="0 0 128 128" role="img" aria-label="Intelligent Rule Manager icon">
  <defs>
    <linearGradient id="bg" x1="0%" y1="0%" x2="100%" y2="100%">
      <stop offset="0%" stop-color="#17325c" />
      <stop offset="100%" stop-color="#2f8f83" />
    </linearGradient>
    <linearGradient id="accent" x1="0%" y1="0%" x2="100%" y2="100%">
      <stop offset="0%" stop-color="#f6d365" />
      <stop offset="100%" stop-color="#fda085" />
    </linearGradient>
  </defs>
  <rect x="8" y="8" width="112" height="112" rx="28" fill="url(#bg)" />
  <path d="M34 37h40c10.493 0 19 8.507 19 19s-8.507 19-19 19H54v16H34V37Z" fill="#f6f7fb" />
  <path d="M84 44c-4.418 0-8 3.582-8 8v4H52v20h24v7c0 4.418 3.582 8 8 8s8-3.582 8-8V52c0-4.418-3.582-8-8-8Z" fill="url(#accent)" />
  <circle cx="52" cy="56" r="7" fill="#17325c" opacity=".18" />
</svg>
